<?xml version="1.0" encoding="utf-8"?>
<!DOCTYPE svg PUBLIC "-//W3C//DTD SVG 1.1//EN" "http://www.w3.org/Graphics/SVG/1.1/DTD/svg11.dtd">
<svg version="1.1" id="图形" xmlns="http://www.w3.org/2000/svg" xmlns:xlink="http://www.w3.org/1999/xlink" x="0px" y="0px" width="1024px" height="1024px" viewBox="0 0 1024 1024" enable-background="new 0 0 1024 1024" xml:space="preserve">
  <path fill="#272636" d="M884.356845 546.51958c-7.061109 7.993045-15.433129 11.990079-25.117082 11.990079L325.42503 558.509658c-9.68293 0-18.055972-3.997034-25.117082-11.990079-7.061109-7.993045-10.591664-17.866926-10.591664-29.622668l0-622.082164c0-11.285021 3.530555-21.042245 10.591664-29.269627 7.061109-8.228405 15.433129-12.343119 25.117082-12.343119l409.137037 0c3.227643 0 9.381042 4.113691 18.460195 12.343119 9.07813 8.228405 19.569506 18.574031 31.47208 31.033807 11.902574 12.4608 24.410971 26.331715 37.524167 41.612747 13.113196 15.282055 25.01577 29.858028 35.708745 43.728944 10.691952 13.870916 19.569506 26.096355 26.629592 36.675294 7.060086 10.579963 10.591664 17.750269 10.591664 21.511943l0 476.789057C894.948509 528.652654 891.417954 538.526535 884.356845 546.51958zM340.54399 263.546763c0 10.106172 8.193957 18.299785 18.300553 18.299785l466.976731 0c10.106596 0 18.300553-8.193613 18.300553-18.299785l0-14.240329c0-10.106172-8.193957-18.299785-18.300553-18.299785L358.844543 231.006649c-10.106596 0-18.300553 8.193613-18.300553 18.299785L340.54399 263.546763zM844.390967 122.207711c0-10.106172-8.193957-18.299785-18.300553-18.299785L359.113684 103.907926c-10.106596 0-18.300553 8.193613-18.300553 18.299785l0 14.240329c0 10.106172 8.193957 18.299785 18.300553 18.299785l466.976731 0c10.106596 0 18.300553-8.193613 18.300553-18.299785L844.390967 122.207711zM844.390967 376.002998c0-10.106172-8.193957-18.299785-18.300553-18.299785L359.113684 357.703213c-10.106596 0-18.300553 8.193613-18.300553 18.299785l0 14.240329c0 10.106172 8.193957 18.299785 18.300553 18.299785l466.976731 0c10.106596 0 18.300553-8.193613 18.300553-18.299785L844.390967 376.002998zM226.826362 618.41912l540.328351 0L767.154714 701.085888c0 9.611915-7.792804 17.404392-17.405122 17.404392L146.456614 718.49028c-9.612319 0-17.405122-7.792477-17.405122-17.404392l0-767.251452c0-9.611915 7.792804-17.404392 17.405122-17.404392l80.369749 0L226.826362 618.41912z" transform="translate(0, 812) scale(1, -1)"/>
</svg>
